<svg xmlns="http://www.w3.org/2000/svg" viewBox="0 0 54.07 54.07"><defs><style>.cls-1{fill:#2a5bad;}</style></defs><g id="Layer_2" data-name="Layer 2"><g id="Layer_3" data-name="Layer 3"><path class="cls-1" d="M24.79,35.13a.88.88,0,0,1,0,1.24.87.87,0,0,1-1.23,0l-8.7-8.7a.87.87,0,0,1-.25-.62h0v0a.83.83,0,0,1,.37-.69l8.62-8.62a.87.87,0,0,1,1.23,1.23l-7.21,7.21h21a.87.87,0,0,1,0,1.74h-21Z"/><path class="cls-1" d="M27,1.8A25.24,25.24,0,1,0,52.27,27,25.27,25.27,0,0,0,27,1.8M27,0A27,27,0,1,1,0,27,27,27,0,0,1,27,0Z"/></g></g></svg>