<svg xmlns="http://www.w3.org/2000/svg" viewBox="0 0 28.54 26.16"><defs><style>.cls-1{fill:#6cf;}.cls-2{fill:#2a5bad;}</style></defs><g id="Layer_2" data-name="Layer 2"><g id="Layer_3" data-name="Layer 3"><path class="cls-1" d="M13.08,26.16A13.08,13.08,0,1,1,20.14,2.07a.89.89,0,1,1-1,1.5,11.29,11.29,0,1,0,5.21,9.51,10,10,0,0,0-.06-1.1.91.91,0,0,1,.81-1,.89.89,0,0,1,1,.8c0,.42.06.85.06,1.28A13.1,13.1,0,0,1,13.08,26.16Z"/><path class="cls-2" d="M14.57,16.05a.85.85,0,0,1-.63-.26L8.59,10.44A.89.89,0,1,1,9.85,9.18l4.72,4.72L27,1.45a.89.89,0,0,1,1.26,1.26L15.2,15.79A.87.87,0,0,1,14.57,16.05Z"/></g></g></svg>