<svg xmlns="http://www.w3.org/2000/svg" viewBox="0 0 8.19 17.64"><defs><style>.cls-1{fill:#fff;fill-rule:evenodd;}</style></defs><g id="Layer_2" data-name="Layer 2"><g id="Layer_3" data-name="Layer 3"><path class="cls-1" d="M5.42,3.85V5.7h2.5A.23.23,0,0,1,8.15,6l-.23,2.6a.22.22,0,0,1-.21.21H5.42v8.66a.22.22,0,0,1-.23.22H2a.22.22,0,0,1-.23-.22V8.76H.23A.23.23,0,0,1,0,8.54V5.92A.23.23,0,0,1,.23,5.7H1.79V3.19A3.2,3.2,0,0,1,5,0H8a.24.24,0,0,1,.23.23V2.84A.24.24,0,0,1,8,3.07H6.2A.77.77,0,0,0,5.42,3.85Z"/></g></g></svg>