<svg xmlns="http://www.w3.org/2000/svg" viewBox="0 0 18.46 18.44"><defs><style>.cls-1{fill:#fff;}</style></defs><g id="Layer_2" data-name="Layer 2"><g id="Layer_3" data-name="Layer 3"><path class="cls-1" d="M12.9,0H5.56A5.55,5.55,0,0,0,0,5.53V12.9a5.56,5.56,0,0,0,5.56,5.54H12.9a5.56,5.56,0,0,0,5.56-5.54V5.53A5.56,5.56,0,0,0,12.9,0Zm3.85,12.9a3.85,3.85,0,0,1-3.85,3.83H5.56A3.83,3.83,0,0,1,1.71,12.9V5.53A3.83,3.83,0,0,1,5.56,1.71H12.9a3.84,3.84,0,0,1,3.85,3.82Z"/><path class="cls-1" d="M15.18,4.36a1.07,1.07,0,0,1-1.07,1.09,1.08,1.08,0,1,1,0-2.16A1.06,1.06,0,0,1,15.18,4.36Z"/><path class="cls-1" d="M9.3,4.68a4.54,4.54,0,1,0,4.54,4.54A4.55,4.55,0,0,0,9.3,4.68Zm0,7.46a2.92,2.92,0,1,1,2.91-2.92A2.92,2.92,0,0,1,9.3,12.14Z"/></g></g></svg>