<?xml version="1.0" encoding="utf-8"?>
<!-- Generator: Adobe Illustrator 24.1.0, SVG Export Plug-In . SVG Version: 6.00 Build 0)  -->
<svg version="1.1" id="Layer_1" xmlns="http://www.w3.org/2000/svg" xmlns:xlink="http://www.w3.org/1999/xlink" x="0px" y="0px"
	 viewBox="0 0 1084.28 587.39" style="enable-background:new 0 0 1084.28 587.39;" xml:space="preserve">
<style type="text/css">
	.st0{fill:#8B1E1D;}
	.st1{fill:#6F7070;}
	.st2{fill:url(#SVGID_1_);}
	.st3{fill:url(#SVGID_2_);}
	.st4{fill:url(#SVGID_3_);}
</style>
<g>
	<g>
		<path class="st0" d="M359.86,441.18V252.34h37.58c23.79,0,66.36,2.5,66.36,54.09c0,20.8-8.27,38.59-26.78,48.84l32.8,85.91H430.5
			l-32.82-87.17h-0.49v87.17H359.86z M397.2,333.47l6.51,0.27c17.03,0,23.8-11.53,23.8-27.05c0-13.53-6.53-24.55-25.31-23.54h-5
			V333.47z"/>
		<path class="st0" d="M532.11,426.9h-0.5c-4.76,9.52-12.03,16.79-23.31,16.79c-28.56,0-34.31-45.58-34.31-65.87
			c0-21.79,4.26-65.62,33.82-65.62c11.77,0,19.77,7.76,23.8,18.04h0.5V314.7h35.3v126.48h-35.3V426.9z M534.6,377.32
			c0-7.01-0.75-33.82-12.79-33.82c-11.75,0-12.51,26.56-12.51,33.82c0,8.01,0.5,34.05,13.03,34.05
			C533.59,411.37,534.6,384.08,534.6,377.32"/>
		<path class="st0" d="M640.56,426.9h-0.51c-4.76,9.52-12.02,16.79-23.29,16.79c-28.56,0-34.31-45.58-34.31-65.87
			c0-21.79,4.26-65.62,33.82-65.62c11.76,0,19.78,7.76,23.78,18.04h0.51v-77.9h35.32v188.84h-35.32V426.9z M643.07,377.32
			c0-7.01-0.77-33.82-12.79-33.82c-11.76,0-12.52,26.56-12.52,33.82c0,8.01,0.5,34.05,13.04,34.05
			C642.06,411.37,643.07,384.08,643.07,377.32"/>
		<path class="st1" d="M733.49,252.34l46.58,113.96l0.51-0.51c-2.26-9.01-3-18.79-3-28.55v-84.9h37.31v188.84h-35.32l-46.07-113.95
			l-0.5,0.51l1.75,19.02l0.24,7.78v86.65h-37.31V252.34H733.49z"/>
		<path class="st1" d="M920.87,387.33h-55.86c0.25,9.26-0.26,29.3,13.3,29.3c9.01,0,11.26-7.01,11.26-14.52h30.05
			c-3.02,23.29-14.29,41.58-40.07,41.58c-35.81,0-48.59-31.81-48.59-63.12c0-30.29,11.01-68.37,47.83-68.37
			c23.29,0,44.84,20.78,42.84,60.61L920.87,387.33z M891.07,362.53c0-8.26-1.75-23.3-12.76-23.3c-10.78,0-13.05,14.53-13.05,22.55
			v3.76h25.8V362.53z"/>
		<polygon class="st1" points="979.78,279.64 979.78,314.7 994.3,314.7 994.3,343.77 979.78,343.77 979.78,441.18 944.46,441.18 
			944.46,343.77 932.2,343.77 932.2,314.7 944.46,314.7 944.46,279.64 		"/>
		<path class="st1" d="M994.3,426.78c0-7.8,6.33-14.14,14.21-14.14c7.84,0,14.18,6.34,14.18,14.14c0,7.88-6.34,14.23-14.18,14.23
			C1000.63,441.01,994.3,434.66,994.3,426.78 M1020.37,426.81c0-6.64-5.15-11.88-11.87-11.88c-6.71,0-11.92,5.24-11.92,11.88
			c0,6.76,5.22,11.87,11.92,11.86C1015.22,438.68,1020.37,433.52,1020.37,426.81 M1015.22,434.72h-2.57l-4.52-7.18h-3.08v7.18h-2.23
			V418.8h6.96c1.31,0,2.68,0,3.83,0.86c1.21,0.67,1.89,2.1,1.86,3.4c0,3.27-2.25,4.41-5.05,4.48L1015.22,434.72z M1007.78,425.83
			c2.2,0,5.44,0.31,5.44-2.83c0-2.24-1.91-2.49-3.87-2.49h-4.3v5.32H1007.78z"/>
	</g>
	<g>
		
			<linearGradient id="SVGID_1_" gradientUnits="userSpaceOnUse" x1="200.8034" y1="262.5618" x2="540.7798" y2="353.6582" gradientTransform="matrix(0.9981 0.0615 -0.0615 0.9981 -84.9545 -43.8924)">
			<stop  offset="0" style="stop-color:#231F20"/>
			<stop  offset="1" style="stop-color:#231F20;stop-opacity:0"/>
		</linearGradient>
		<path class="st2" d="M99.53,178.96c-65.91,111.59-28.88,255.47,82.7,321.36c33.03,19.5,68.88,30,104.71,32.21
			c25.29,1.56,50.57-1.02,74.82-7.45c-13.44,1.74-27.13,2.23-40.89,1.4c-18.49-1.14-37.12-4.7-55.51-10.87
			C152.19,477.7,91.19,355.23,129.1,242.08C160.87,147.3,251.93,89.12,347.15,94.98c18.48,1.13,37.12,4.67,55.51,10.87
			c38.52,12.89,71,35.6,95.58,64.38c-19.1-29.39-45.12-54.94-77.36-73.98C387.85,76.74,352,66.26,316.17,64.04
			C230.96,58.79,145.91,100.41,99.53,178.96"/>
		
			<linearGradient id="SVGID_2_" gradientUnits="userSpaceOnUse" x1="223.544" y1="357.0016" x2="374.7246" y2="312.2072" gradientTransform="matrix(0.9999 0.0158 -0.0158 0.9999 -21.2631 -10.3816)">
			<stop  offset="0" style="stop-color:#231F20"/>
			<stop  offset="1" style="stop-color:#231F20;stop-opacity:0"/>
		</linearGradient>
		<path class="st3" d="M181.14,292.21c-10.35,86.04,51.05,164.19,137.1,174.54c5.51,0.66,10.99,1.02,16.43,1.11
			c32.69,0.52,63.64-9.18,89.41-26.39c-8.51,4.35-17.55,7.97-27.04,10.74c-15.07,4.39-30.29,6.35-45.2,6.11
			c-65.19-1.03-124.89-44.07-144.07-109.95c-23.61-80.93,22.87-165.69,103.81-189.28c8.4-2.45,16.84-4.14,25.25-5.12
			C258.49,153.94,190.71,212.49,181.14,292.21"/>
		
			<linearGradient id="SVGID_3_" gradientUnits="userSpaceOnUse" x1="-17.7147" y1="67.7313" x2="9.3555" y2="184.7882" gradientTransform="matrix(0.9782 -0.2076 0.2076 0.9782 298.8028 108.6617)">
			<stop  offset="0" style="stop-color:#231F20"/>
			<stop  offset="1" style="stop-color:#231F20;stop-opacity:0"/>
		</linearGradient>
		<path class="st4" d="M260.6,221.62c52.1-54.91,138.87-57.15,193.78-5.03c11.15,10.59,20.1,22.64,26.89,35.56
			c-9.46-23.3-25.37-44.28-47.34-59.99c-32.66-23.32-72.04-30.33-108.45-22.61c-32.41,6.89-62.46,25.44-83.26,54.53
			c-32.72,45.8-33.3,104.81-6.26,150.27C212.65,324.71,220.55,263.79,260.6,221.62z"/>
	</g>
</g>
</svg>
