<svg xmlns="http://www.w3.org/2000/svg" viewBox="0 0 58.05 58.05"><defs><style>.cls-1{fill:#243565;}</style></defs><g id="Layer_2" data-name="Layer 2"><g id="Layer_3" data-name="Layer 3"><path class="cls-1" d="M.19,40.92a11.49,11.49,0,0,1,9.29-3.31l8.63.86-.87-8.63a11.52,11.52,0,0,1,12.6-12.6l8.63.87-.86-8.63A11.46,11.46,0,0,1,40.92.19a.67.67,0,0,1,.93,0,.65.65,0,0,1,0,.93,10.15,10.15,0,0,0-2.93,8.23l.89,8.89,8.89.89a10.18,10.18,0,0,0,8.23-2.94.66.66,0,0,1,.93.93,11.47,11.47,0,0,1-8.13,3.38,11.27,11.27,0,0,1-1.16-.06l-8.63-.86.86,8.63A11.5,11.5,0,0,1,29.36,40.86a11.07,11.07,0,0,1-1.15-.06l-8.63-.86.86,8.63a11.48,11.48,0,0,1-3.32,9.29.66.66,0,0,1-.46.19.7.7,0,0,1-.47-.19.67.67,0,0,1,0-.93,10.14,10.14,0,0,0,2.94-8.23l-.89-8.89-8.89-.89a10.15,10.15,0,0,0-8.23,2.93.65.65,0,0,1-.93,0A.67.67,0,0,1,.19,40.92ZM28.34,39.5A10.21,10.21,0,0,0,39.5,28.34l-.89-8.9-8.9-.89A10.21,10.21,0,0,0,18.55,29.71l.89,8.9Z"/><path class="cls-1" d="M23.47,23.47a.65.65,0,0,1,.93,0L34.58,33.65a.66.66,0,0,1-.93.93L23.47,24.4A.65.65,0,0,1,23.47,23.47Z"/><path class="cls-1" d="M22,27.83a.65.65,0,0,1,.93,0l7.28,7.28a.67.67,0,0,1,0,.93.7.7,0,0,1-.47.19.68.68,0,0,1-.46-.19L22,28.76A.67.67,0,0,1,22,27.83Z"/><path class="cls-1" d="M21.49,32.2l4.36,4.36a.65.65,0,0,1,0,.93.63.63,0,0,1-.46.19.66.66,0,0,1-.47-.19l-4.36-4.36a.66.66,0,0,1,.93-.93Z"/><path class="cls-1" d="M27.83,22a.67.67,0,0,1,.93,0L36,29.29a.67.67,0,0,1,0,.93.66.66,0,0,1-.47.19.62.62,0,0,1-.46-.19l-7.28-7.28A.65.65,0,0,1,27.83,22Z"/><path class="cls-1" d="M32.2,20.56a.65.65,0,0,1,.93,0l4.36,4.36a.66.66,0,0,1-.93.93L32.2,21.49A.65.65,0,0,1,32.2,20.56Z"/><path class="cls-1" d="M46.22,17.12a.67.67,0,0,1-.47.2.65.65,0,0,1-.46-.2l-4.37-4.36a.67.67,0,0,1,0-.93.65.65,0,0,1,.93,0l4.37,4.36A.67.67,0,0,1,46.22,17.12Z"/><path class="cls-1" d="M50.58,15.67a.63.63,0,0,1-.46.19.66.66,0,0,1-.47-.19L42.38,8.4a.66.66,0,1,1,.93-.93l7.27,7.27A.65.65,0,0,1,50.58,15.67Z"/><path class="cls-1" d="M11.83,40.92a.67.67,0,0,1,.93,0l4.36,4.37a.65.65,0,0,1,0,.93.62.62,0,0,1-.46.19.66.66,0,0,1-.47-.19l-4.36-4.37A.65.65,0,0,1,11.83,40.92Z"/><path class="cls-1" d="M7.47,42.38a.65.65,0,0,1,.93,0l7.27,7.27a.66.66,0,0,1-.93.93L7.47,43.31A.65.65,0,0,1,7.47,42.38Z"/><path class="cls-1" d="M54.48,14.41a.63.63,0,0,1-.46-.2L43.83,4a.66.66,0,0,1,.93-.93L55,13.28a.67.67,0,0,1-.47,1.13Z"/><path class="cls-1" d="M4,43.83,14.21,54a.65.65,0,0,1,0,.93.66.66,0,0,1-.46.19.7.7,0,0,1-.47-.19L3.1,44.76A.66.66,0,0,1,4,43.83Z"/></g></g></svg>