<svg xmlns="http://www.w3.org/2000/svg" viewBox="0 0 107.5 55.57"><defs><style>.cls-1{fill:#243565;}</style></defs><g id="Layer_2" data-name="Layer 2"><g id="Layer_3" data-name="Layer 3"><path class="cls-1" d="M19.65,24.08a8,8,0,0,0,3.38,0,.66.66,0,0,0-.3-1.29,6.52,6.52,0,0,1-2.78,0,.66.66,0,0,0-.3,1.29Z"/><path class="cls-1" d="M17.89,20a.87.87,0,1,1-.86-.86A.87.87,0,0,1,17.89,20Z"/><path class="cls-1" d="M16.73,16.43a.65.65,0,0,0,.74-.56.64.64,0,0,0-.55-.74,3.65,3.65,0,0,0-2.66.59.65.65,0,0,0-.13.91.67.67,0,0,0,.53.26.69.69,0,0,0,.39-.12A2.38,2.38,0,0,1,16.73,16.43Z"/><path class="cls-1" d="M17.23,26.54a.66.66,0,0,0,0,.93,5.82,5.82,0,0,0,4.13,1.34,5.81,5.81,0,0,0,4.12-1.34.66.66,0,0,0,0-.92.65.65,0,0,0-.92,0,4.53,4.53,0,0,1-3.17.94,4.65,4.65,0,0,1-3.18-.93A.65.65,0,0,0,17.23,26.54Z"/><path class="cls-1" d="M26.5,20a.87.87,0,1,1-.87-.87A.87.87,0,0,1,26.5,20Z"/><path class="cls-1" d="M21.46,30.23h-.54a.66.66,0,0,0,0,1.32h.54a.66.66,0,0,0,0-1.32Z"/><path class="cls-1" d="M8.62,47.3A.65.65,0,0,0,8,48v6a.66.66,0,0,0,1.31,0V48A.65.65,0,0,0,8.62,47.3Z"/><path class="cls-1" d="M25.94,16.43a2.36,2.36,0,0,1,1.68.34.68.68,0,0,0,.39.13.66.66,0,0,0,.39-1.18,3.61,3.61,0,0,0-2.65-.59.65.65,0,0,0-.56.74A.67.67,0,0,0,25.94,16.43Z"/><path class="cls-1" d="M42.17,44.56a12.8,12.8,0,0,0-9.92-9.35,4.07,4.07,0,0,0,0-.55.66.66,0,0,0-.35-.61,4,4,0,0,0-2.36-.63,11.43,11.43,0,0,1-.38-2.72,21.19,21.19,0,0,0,3.49-6.48A4.8,4.8,0,0,0,35.28,19a1.74,1.74,0,0,0-.66-1.15c.32-2,1.37-10.47-3.7-13.13A7.29,7.29,0,0,0,26.87,1a15.64,15.64,0,0,0-5.52-1h0A15.68,15.68,0,0,0,15.8,1a7.32,7.32,0,0,0-4.05,3.76c-5.07,2.66-4,11.16-3.7,13.13a1.7,1.7,0,0,0-.66,1.16A4.8,4.8,0,0,0,10,24.22a21,21,0,0,0,3.47,6.46A11.58,11.58,0,0,1,13,33.42a4,4,0,0,0-2.36.63.66.66,0,0,0-.35.61s0,.21.05.55A12.81,12.81,0,0,0,.46,44.56a16,16,0,0,0-.46,4V54a.65.65,0,0,0,.66.65A.66.66,0,0,0,1.32,54V48.6a14.27,14.27,0,0,1,.42-3.7c1.42-5.46,5.51-7.58,8.88-8.39a10.12,10.12,0,0,0,6.29,7.34.85.85,0,0,0,.23,0,.67.67,0,0,0,.42-.18L19.13,45a.53.53,0,0,0,.21.11l-1.56,6.13a.64.64,0,0,0,.12.58l2.82,3.49a.67.67,0,0,0,.52.25l.08,0,.08,0a.66.66,0,0,0,.51-.25l2.82-3.49a.67.67,0,0,0,.13-.58l-1.57-6.13A.53.53,0,0,0,23.5,45l1.57-1.3a.69.69,0,0,0,.42.18.85.85,0,0,0,.23,0A10.12,10.12,0,0,0,32,36.51c3.37.81,7.46,2.93,8.88,8.39a14.19,14.19,0,0,1,.43,3.7V54a.66.66,0,0,0,1.31,0V48.6A16,16,0,0,0,42.17,44.56ZM21.32,39.13c-4,0-6.4-3.14-7.3-4.58A9.24,9.24,0,0,0,14.64,32a9.65,9.65,0,0,0,6.69,3.22A9.64,9.64,0,0,0,28,32.06a9.88,9.88,0,0,0,.62,2.49C27.72,36,25.32,39.12,21.32,39.13ZM12.54,5.83a.71.71,0,0,0,.32-.34,6,6,0,0,1,3.4-3.26,14.25,14.25,0,0,1,5.06-.91h0a14.21,14.21,0,0,1,5.06.91,6,6,0,0,1,3.4,3.26.68.68,0,0,0,.33.34c4.31,2.06,3.51,9.66,3.21,11.7a1.14,1.14,0,0,0-.33.07,7,7,0,0,1-1.5-2.93,11,11,0,0,0-1.72-3.83.64.64,0,0,0-.88-.17c-2.55,1.61-6.5.7-9.67,0-3-.69-5.38-1.24-6.41.2a11.2,11.2,0,0,0-1.72,3.83A7.22,7.22,0,0,1,9.63,17.6a1.63,1.63,0,0,0-.3-.07C9,15.5,8.22,7.89,12.54,5.83ZM10.77,23.15A3.5,3.5,0,0,1,8.69,19.2a.44.44,0,0,1,.23-.33.38.38,0,0,1,.38,0l.22.11a.66.66,0,0,0,.82-.22.15.15,0,0,0,.07-.05,8.43,8.43,0,0,0,2-3.73,10.12,10.12,0,0,1,1.5-3.37c.53-.73,2.83-.2,5,.31,3.21.74,7.15,1.65,10.11.17A10.47,10.47,0,0,1,30.24,15a8.43,8.43,0,0,0,2,3.73s.06,0,.09.06a.63.63,0,0,0,.81.21l.23-.12a.42.42,0,0,1,.39,0,.42.42,0,0,1,.22.33,3.49,3.49,0,0,1-2.09,4,.66.66,0,0,0-.35.4c-1.58,5-5.7,10.38-10.2,10.38S12.7,28.59,11.12,23.55A.73.73,0,0,0,10.77,23.15ZM11.67,35a3.6,3.6,0,0,1,.92-.31c.6,1.1,2.79,4.62,6.82,5.51a10.93,10.93,0,0,0-2.48,2.21A9,9,0,0,1,11.67,35ZM21.32,54l-2.19-2.7,1.56-6.1h1.25l1.56,6.1Zm1.52-10.12H19.79l-1.35-1.11a7.44,7.44,0,0,1,2.88-1.95,7.4,7.4,0,0,1,2.87,1.95Zm2.86-1.4a10.71,10.71,0,0,0-2.48-2.21c4-.89,6.22-4.41,6.82-5.51A3.6,3.6,0,0,1,31,35,9,9,0,0,1,25.7,42.44Z"/><path class="cls-1" d="M34,47.3a.65.65,0,0,0-.66.66v6a.66.66,0,0,0,1.32,0V48A.66.66,0,0,0,34,47.3Z"/><path class="cls-1" d="M84.07,25.05a8.62,8.62,0,0,0,3.6,0,.66.66,0,0,0-.3-1.29,6.9,6.9,0,0,1-3,0,.66.66,0,0,0-.79.5A.67.67,0,0,0,84.07,25.05Z"/><path class="cls-1" d="M82.15,19.75a.88.88,0,0,1-.87.88.89.89,0,1,1,.87-.88Z"/><path class="cls-1" d="M91.38,19.75a.88.88,0,1,1-.88-.89A.88.88,0,0,1,91.38,19.75Z"/><path class="cls-1" d="M78.46,17.21A.66.66,0,0,0,79,17a2.58,2.58,0,0,1,1.64-.86.66.66,0,0,0,.56-.74.65.65,0,0,0-.74-.56,3.91,3.91,0,0,0-2.51,1.37.65.65,0,0,0,.53,1.05Z"/><path class="cls-1" d="M91.13,16.08a2.59,2.59,0,0,1,1.63.87.67.67,0,0,0,.53.26.65.65,0,0,0,.52-1.05,3.9,3.9,0,0,0-2.5-1.38.66.66,0,1,0-.18,1.3Z"/><path class="cls-1" d="M107,44.08a13.07,13.07,0,0,0-3-5.66l0-.05a.5.5,0,0,0-.08-.07A14.88,14.88,0,0,0,96,34.13L95.35,34a38,38,0,0,0,1.29-6.71s0-.07,0-.11A26.72,26.72,0,0,0,97.93,24a5.09,5.09,0,0,0,2.71-5.46,1.84,1.84,0,0,0-.94-1.39l-.24-.1.92-1.6a.67.67,0,0,0-.07-.74l-.85-1,.51-2.45a.64.64,0,0,0-.21-.63.67.67,0,0,0-.66-.12l-2.66,1a12.9,12.9,0,0,0-7.56-5.15c.18-.28.42-.63.71-1a.64.64,0,0,0-.11-.92.65.65,0,0,0-.92.11A15.38,15.38,0,0,0,87.49,6a12.51,12.51,0,0,0-1.63-.11l-.47,0a9.77,9.77,0,0,1,2.83-3.86A.66.66,0,1,0,87.44,1a11.51,11.51,0,0,0-3.53,5.05,12.87,12.87,0,0,0-8.63,5.37l-2.64-1a.66.66,0,0,0-.88.75l.51,2.46-.85,1a.65.65,0,0,0-.06.74l.91,1.6-.23.11a1.8,1.8,0,0,0-.94,1.38A5.06,5.06,0,0,0,73.81,24,26.78,26.78,0,0,0,75,27a1,1,0,0,0,0,.25A38.63,38.63,0,0,0,76.28,34l-.6.14a14.88,14.88,0,0,0-7.92,4.17.27.27,0,0,0-.08.07s0,0,0,.05a13.07,13.07,0,0,0-3,5.66,16.68,16.68,0,0,0-.48,4.25V54a.66.66,0,0,0,1.31,0V48.33a15.28,15.28,0,0,1,.45-3.91,11.9,11.9,0,0,1,2.34-4.71,14.69,14.69,0,0,1,4.28,8V54a.66.66,0,0,0,1.31,0v-6.4a15.71,15.71,0,0,0-4.69-8.81,13.6,13.6,0,0,1,6.79-3.33l.75-.18c.26.77.55,1.54.89,2.3a8.85,8.85,0,0,0,8.1,5.22H86a8.86,8.86,0,0,0,8.11-5.22c.34-.76.63-1.53.89-2.3l.75.18a13.64,13.64,0,0,1,6.79,3.33,15.71,15.71,0,0,0-4.69,8.81V54a.66.66,0,0,0,1.31,0V47.69a14.69,14.69,0,0,1,4.28-8,11.9,11.9,0,0,1,2.34,4.71,15.28,15.28,0,0,1,.45,3.91V54a.66.66,0,0,0,1.31,0V48.33A17.14,17.14,0,0,0,107,44.08ZM98.25,14.23l.76.94-1,1.66a4.13,4.13,0,0,1-2.35-3.73l2.73-1-.33,1.59A.64.64,0,0,0,98.25,14.23Zm-25-2.13,2.73,1a4.15,4.15,0,0,1-2.35,3.73l-1-1.66.77-.94a.65.65,0,0,0,.13-.54Zm1.34,10.83a3.76,3.76,0,0,1-2.23-4.24.52.52,0,0,1,.26-.39.49.49,0,0,1,.45,0h0l.13.05a.74.74,0,0,0,.36,0l.05,0c3.42-1.53,3.86-4.46,3.61-5.79a.65.65,0,0,0-.42-.5l-.32-.12a11.62,11.62,0,0,1,18.62,0l-.31.11a.69.69,0,0,0-.42.5,5.53,5.53,0,0,0,3.61,5.79l0,0a.63.63,0,0,0,.36,0,.44.44,0,0,0,.15-.05h0a.47.47,0,0,1,.44,0,.49.49,0,0,1,.26.39,3.76,3.76,0,0,1-2.22,4.23.66.66,0,0,0-.35.4,25.67,25.67,0,0,1-1.33,3.33.6.6,0,0,0-.06.23,10.66,10.66,0,0,1-4.32,1.91c-.59-.62-2.12-1.83-5.25-1.9s-4.62,1.28-5.21,1.91A10.84,10.84,0,0,1,76.36,27a.63.63,0,0,0,0-.3A23,23,0,0,1,75,23.33.69.69,0,0,0,74.63,22.93ZM92.87,37A7.54,7.54,0,0,1,86,41.44h-.29A7.54,7.54,0,0,1,78.77,37a33.29,33.29,0,0,1-2.28-8.36,13,13,0,0,0,4.27,1.51.66.66,0,0,0,.65-.3c0-.06,1.07-1.57,4.39-1.66,3.34.09,4.38,1.58,4.43,1.66a.65.65,0,0,0,.65.3,13,13,0,0,0,4.27-1.51A33.29,33.29,0,0,1,92.87,37Z"/><path class="cls-1" d="M87.86,30.84a2.87,2.87,0,0,1-2,.57,3,3,0,0,1-2-.56.66.66,0,1,0-1,.91,4.91,4.91,0,0,0,5.86,0,.65.65,0,0,0,0-.92A.67.67,0,0,0,87.86,30.84Z"/><path class="cls-1" d="M59,35.17H47.81a.66.66,0,0,1,0-1.32H59a.66.66,0,0,1,0,1.32Z"/></g></g></svg>