<svg xmlns="http://www.w3.org/2000/svg" viewBox="0 0 58.11 53.19"><defs><style>.cls-1{fill:#243565;}</style></defs><g id="Layer_2" data-name="Layer 2"><g id="Layer_3" data-name="Layer 3"><path class="cls-1" d="M57.19,51.77a4,4,0,0,1-3,1.42H4a4,4,0,0,1-3-1.42,3.88,3.88,0,0,1-.9-3.16L4.17,22.37A3.94,3.94,0,0,1,8.07,19H27.36a.76.76,0,0,1,.75.75.75.75,0,0,1-.75.74H14.8l-1,2.17-2.19,4.92a.66.66,0,0,1-1.21-.54l1-2.34,1.93-4.21H8.07a2.46,2.46,0,0,0-2.42,2.1L1.52,48.85a2.42,2.42,0,0,0,.57,1.95A2.48,2.48,0,0,0,4,51.7H45.18l-.48-1.64-1-2.78L43.11,46l-.21-.55-.36-.67,0-.11-.05-.16a.66.66,0,0,1,.91-.78.71.71,0,0,1,.36.44l.33.63a.59.59,0,0,0,0,.08l.85,2,1,2.83.59,2h7.63a2.55,2.55,0,0,0,1.9-.9,2.38,2.38,0,0,0,.53-1.95L52.46,22.6A2.46,2.46,0,0,0,50,20.5h-7a.74.74,0,0,1-.75-.74.75.75,0,0,1,.75-.75h7a3.94,3.94,0,0,1,3.9,3.36l4.12,26.24A3.82,3.82,0,0,1,57.19,51.77Z"/><path class="cls-1" d="M10.37,29.82a.6.6,0,0,1,0,.49l-1,2.6L9,34.47l-.19.94-.09.88a.66.66,0,0,1-.7.56.65.65,0,0,1-.57-.71l.07-.82a.29.29,0,0,1,0-.09l.23-1.11.46-1.67L9,30.26l.19-.44a.63.63,0,0,1,.35-.35.61.61,0,0,1,.24,0,.67.67,0,0,1,.24,0A.63.63,0,0,1,10.37,29.82Z"/><path class="cls-1" d="M14.86,42.25a.64.64,0,0,1-.64.64H14l-.55-.11-.07,0-.56-.19-.51-.13-.09,0-1.54-.7-.5-.29-.79-.61-.06,0-.66-.66L8.61,40l-.25-.37a.41.41,0,0,1,0-.09l-.07-.14a.64.64,0,0,1,0-.49.65.65,0,0,1,.32-.37.66.66,0,0,1,.5,0,.64.64,0,0,1,.36.33l.22.34.61.61.75.58.38.22,1.32.59,1.06.32.44.1h.09A.64.64,0,0,1,14.86,42.25Z"/><path class="cls-1" d="M24.22,41.56a.62.62,0,0,1-.36.33L23,42.2l-2,.6L19.87,43l-1.11.15-.6,0h-.77a.64.64,0,1,1,0-1.28h.77l.51,0,1-.15,1-.21,1-.29,1-.29.78-.28a.65.65,0,0,1,.82.38A.6.6,0,0,1,24.22,41.56Z"/><path class="cls-1" d="M33.56,38.79a.64.64,0,0,1-.64.64l-1.83.11-.47.07-1.46.32-2.28.79a.66.66,0,0,1-.82-.39.65.65,0,0,1,.39-.82l1.9-.67.52-.16,1.57-.34.56-.08,1.58-.11h.34A.64.64,0,0,1,33.56,38.79Z"/><path class="cls-1" d="M40.39,40.39l.39.32L42,41.91a.63.63,0,0,1,0,.9.66.66,0,0,1-.91,0l-.5-.54-.65-.61-.73-.55-.78-.47-1.31-.55-.91-.26-.22,0a.64.64,0,0,1,.11-1.27h.1l.23,0,.06,0,1.09.31.49.19,1,.45.46.26.84.58Z"/><path class="cls-1" d="M34.37,22.65h0a.67.67,0,0,1-.52-.25c-.31-.4-7.7-9.82-7.7-14.18a8.22,8.22,0,0,1,16.44,0c0,4.36-7.39,13.78-7.71,14.18A.63.63,0,0,1,34.37,22.65Zm0-21.33a6.91,6.91,0,0,0-6.91,6.9c0,3,4.59,9.64,6.91,12.7,2.32-3.06,6.9-9.7,6.9-12.7A6.9,6.9,0,0,0,34.37,1.32Zm0,10.66a4.17,4.17,0,1,1,4.16-4.16A4.17,4.17,0,0,1,34.37,12Zm0-7a2.85,2.85,0,1,0,2.85,2.85A2.86,2.86,0,0,0,34.37,5Z"/></g></g></svg>