<svg xmlns="http://www.w3.org/2000/svg" viewBox="0 0 61.54 68.09"><defs><style>.cls-1{fill:#243565;}</style></defs><g id="Layer_2" data-name="Layer 2"><g id="Layer_3" data-name="Layer 3"><path class="cls-1" d="M26.12,26.75a7.5,7.5,0,1,0,7.5,7.5A7.51,7.51,0,0,0,26.12,26.75Zm0,13.32a5.82,5.82,0,1,1,5.81-5.82A5.83,5.83,0,0,1,26.12,40.07Z"/><path class="cls-1" d="M38.77,48.51a10.12,10.12,0,0,0-7.19-3h-11A10.2,10.2,0,0,0,10.41,55.72V66a2.13,2.13,0,0,0,2.13,2.13H39.61A2.14,2.14,0,0,0,41.75,66V55.72A10.11,10.11,0,0,0,38.77,48.51Zm1.3,17.9H35.6V56a.76.76,0,0,0-1.52,0v10.4h-16V56a.76.76,0,0,0-1.52,0v10.4H12.08V55.72a8.52,8.52,0,0,1,8.51-8.51h11a8.5,8.5,0,0,1,8.49,8.51Z"/><path class="cls-1" d="M15.67,0a7.5,7.5,0,1,0,7.5,7.5A7.5,7.5,0,0,0,15.67,0Zm0,13.31A5.82,5.82,0,1,1,21.49,7.5,5.81,5.81,0,0,1,15.67,13.31Z"/><path class="cls-1" d="M29.65,23.59a.81.81,0,0,1-.34.56A.86.86,0,0,1,28.14,24a8.54,8.54,0,0,0-6.86-3.47H10.19A8.52,8.52,0,0,0,1.68,29V39.66H6.16V29.26a.75.75,0,0,1,.75-.76.76.76,0,0,1,.77.76v10.4h8.54a.84.84,0,1,1,0,1.68H2.14A2.12,2.12,0,0,1,0,39.25V29A10.2,10.2,0,0,1,10.19,18.82H21.28A10.23,10.23,0,0,1,29.5,23,.86.86,0,0,1,29.65,23.59Z"/><path class="cls-1" d="M45.91,11.13a7.5,7.5,0,1,0,7.49,7.5A7.51,7.51,0,0,0,45.91,11.13Zm0,13.32a5.82,5.82,0,1,1,5.81-5.82A5.83,5.83,0,0,1,45.91,24.45Z"/><path class="cls-1" d="M61.54,40.13V50.38a2.12,2.12,0,0,1-2.13,2.09h-14a.84.84,0,0,1,0-1.68h8.51V40.38a.76.76,0,0,1,1.52,0V50.79h4.47V40.13a8.51,8.51,0,0,0-8.51-8.5H40.44a8.68,8.68,0,0,0-3,.53.85.85,0,0,1-1.08-.49.84.84,0,0,1,.49-1.08A10.31,10.31,0,0,1,40.44,30H51.35A10.2,10.2,0,0,1,61.54,40.13Z"/></g></g></svg>