<svg xmlns="http://www.w3.org/2000/svg" viewBox="0 0 17.14 14.12"><defs><style>.cls-1{fill:#fff;fill-rule:evenodd;}</style></defs><g id="Layer_2" data-name="Layer 2"><g id="Layer_3" data-name="Layer 3"><path class="cls-1" d="M17.13,1.68v0a.39.39,0,0,1-.07.28,6.46,6.46,0,0,1-1.38,1.43c-.06,0-.2.12-.2.23a10.55,10.55,0,0,1-2.78,7.71A10.37,10.37,0,0,1,2.61,13.7a9.88,9.88,0,0,1-1.94-.79,6.21,6.21,0,0,1-.61-.34c0-.06-.08-.08,0-.11a.43.43,0,0,1,.24,0,6.91,6.91,0,0,0,2.92-.38c.5-.18,1.6-.52,1.91-1a0,0,0,0,1,0,0C5,11,4.85,11,4.72,11a3.75,3.75,0,0,1-2.8-2.36c0-.09,0-.15.09-.13a4.06,4.06,0,0,0,1.33,0,2.63,2.63,0,0,1-.45-.15A3.64,3.64,0,0,1,.66,5.44a1.31,1.31,0,0,1,0-.4C.64,5,.7,4.92.76,5a4.1,4.1,0,0,0,1.38.38C2,5.24,1.84,5.1,1.71,5A3.57,3.57,0,0,1,1.1.74c.06-.1.1-.1.18,0a11,11,0,0,0,7.08,3.6c.06,0,.06,0,.06-.08a4.14,4.14,0,0,1,0-1.49,3.56,3.56,0,0,1,.69-1.39,3.74,3.74,0,0,1,1.17-1A3.93,3.93,0,0,1,11.69,0s0,0,.05,0h0a3.35,3.35,0,0,1,1.54.24,3.89,3.89,0,0,1,1,.61l.19.18a.12.12,0,0,0,.13,0A8.41,8.41,0,0,0,16.68.29h.09s0,.05,0,.08a3,3,0,0,1-.57,1,3.13,3.13,0,0,1-.76.73,6.46,6.46,0,0,0,1.65-.47C17.15,1.65,17.13,1.65,17.13,1.68Z"/></g></g></svg>